<svg xmlns="http://www.w3.org/2000/svg" viewBox="0 0 360.52 143.59"><path d="M136.86 81.34c3.86 2.43 5.84 6.03 5.93 10.8v.82h-14.11v-.27c0-1.36-.5-2.5-1.5-3.41s-2.52-1.36-4.57-1.36-3.53.3-4.6.89-1.6 1.32-1.6 2.18c0 1.23.73 2.14 2.18 2.73s3.79 1.2 7.02 1.84c3.77.77 6.87 1.58 9.3 2.42s4.55 2.21 6.37 4.12q2.73 2.865 2.79 7.77c0 5.54-1.87 9.65-5.62 12.33q-5.625 4.02-15.03 4.02c-7.32 0-13.01-1.23-17.07-3.68-4.07-2.45-6.1-6.79-6.1-13.02h14.24c0 2.36.61 3.94 1.84 4.74s3.13 1.19 5.72 1.19c1.91 0 3.49-.21 4.74-.61 1.25-.41 1.87-1.25 1.87-2.52 0-1.14-.69-1.99-2.08-2.56s-3.65-1.17-6.78-1.81c-3.82-.82-6.97-1.67-9.47-2.56s-4.68-2.35-6.54-4.4c-1.86-2.04-2.79-4.82-2.79-8.31 0-5.13 1.99-8.92 5.96-11.35 3.98-2.43 9.01-3.65 15.09-3.65s10.93 1.22 14.79 3.65Zm43.82 44.06h-15.06v-18.2l-18.6-28.69h17.31l9 15.61h.27l9-15.61h16.42l-18.33 28.69v18.2Zm57.45 0-19.69-22.76v22.76h-13.83V78.51h13.15l19.69 23.1v-23.1h13.83v46.89zm62.08-42.49c4.04 3.48 6.07 8.44 6.07 14.89H291.9c0-2.73-.72-4.88-2.15-6.47s-3.46-2.39-6.1-2.39c-3.04 0-5.28.95-6.71 2.86s-2.15 4.57-2.15 7.97v4.36c0 3.36.72 6.01 2.15 7.94s3.62 2.9 6.58 2.9 5.11-.75 6.61-2.25 2.25-3.61 2.25-6.34h13.9c0 6.41-1.97 11.31-5.89 14.72-3.93 3.41-9.48 5.11-16.66 5.11-8 0-14.05-2.04-18.16-6.13s-6.17-10.13-6.17-18.13 2.06-14.04 6.17-18.13 10.16-6.13 18.16-6.13c6.95 0 12.45 1.74 16.49 5.21ZM89.04 13.46c3.86 2.43 5.84 6.03 5.93 10.8v.82H80.86v-.27c0-1.36-.5-2.5-1.5-3.41s-2.52-1.36-4.57-1.36-3.53.3-4.6.89-1.6 1.32-1.6 2.18c0 1.23.73 2.14 2.18 2.73s3.79 1.2 7.02 1.84c3.77.77 6.87 1.58 9.3 2.42s4.55 2.21 6.37 4.12q2.73 2.865 2.79 7.77c0 5.54-1.87 9.65-5.62 12.33q-5.625 4.02-15.03 4.02c-7.32 0-13.01-1.23-17.07-3.68-4.07-2.45-6.1-6.79-6.1-13.02h14.24c0 2.36.61 3.94 1.84 4.74s3.13 1.19 5.72 1.19c1.91 0 3.49-.21 4.74-.61 1.25-.41 1.87-1.25 1.87-2.52 0-1.14-.69-1.99-2.08-2.56s-3.65-1.17-6.78-1.81c-3.82-.82-6.97-1.67-9.47-2.56s-4.68-2.35-6.54-4.4c-1.86-2.04-2.79-4.82-2.79-8.31 0-5.13 1.99-8.92 5.96-11.35 3.98-2.43 9.01-3.65 15.09-3.65s10.93 1.22 14.79 3.65Zm41.7 9.16v34.89h-15.06V22.62h-15.4V10.63h45.79v11.99zm22.22-11.99h40.55v11.25h-25.49v6.47h21.81v10.77h-21.81v7.16h25.96v11.24h-41.02zm83.27 2.01c2.27 1.34 4.04 3.18 5.32 5.52 1.27 2.34 1.91 4.96 1.91 7.87v.89c0 2.91-.64 5.54-1.91 7.9s-3.04 4.21-5.32 5.55q-3.405 2.01-7.77 2.01h-11.24v15.13h-15.06V10.63h26.3q4.365 0 7.77 2.01m-19.01 18.78h6.2c1.59 0 2.78-.41 3.58-1.23.79-.82 1.19-1.93 1.19-3.34v-.54c0-1.45-.4-2.58-1.19-3.37-.8-.79-1.99-1.19-3.58-1.19h-6.2v9.68ZM35.85 67.98v50.81c0 4.56 3.29 6.88 7.66 5.45 2.4-.79 3.27-2.37 3.26-4.88-.06-20.59-.03-41.17-.03-61.76 0-13.76 0-27.51-.02-41.27 0-3.79-1.76-5.55-5.42-5.53-3.67.02-5.45 1.8-5.45 5.52v51.65h-.01Zm-.91-.27c0-14.13-.11-28.26.07-42.38.05-4.08-2.52-5.33-4.97-5.44-3.33-.16-5.27 1.88-5.27 5.42v84.77c0 3.59 1.89 5.52 5.24 5.45 3.25-.07 4.93-1.9 4.94-5.43V67.71Zm-10.93-.01V34.85c0-3.86-1.64-5.68-4.99-5.65-3.26.03-4.86 1.78-4.86 5.5-.02 21.99-.02 43.99 0 65.98 0 3.68 1.65 5.48 4.86 5.52 3.33.04 4.99-1.8 4.99-5.66.02-10.95 0-21.9 0-32.85ZM13.27 54.06c-3.32-.36-5.95 1.83-6.07 5.4-.18 5.5-.19 11.01.02 16.51.14 3.63 2.72 5.75 6.05 5.38V54.07Zm-7.28 8.01c-2.01.36-5.4.4-5.55 1.11-.61 2.94-.57 6.15.01 9.12.13.65 3.42.68 5.54 1.05zm318.68 4.68V15.94c0-4.56-3.29-6.88-7.66-5.45-2.4.79-3.27 2.37-3.26 4.88.06 20.59.03 41.17.03 61.76 0 13.76 0 27.51.02 41.27 0 3.79 1.76 5.55 5.42 5.53 3.67-.02 5.45-1.8 5.45-5.52V66.76h.01Zm.92.28c0 14.13.11 28.26-.07 42.38-.05 4.08 2.52 5.33 4.97 5.44 3.33.16 5.27-1.88 5.27-5.42V24.66c0-3.59-1.89-5.52-5.24-5.45-3.25.07-4.93 1.9-4.94 5.43v42.39Zm10.92.01v32.85c0 3.86 1.64 5.68 4.99 5.65 3.26-.03 4.86-1.78 4.86-5.5.02-21.99.02-43.99 0-65.98 0-3.68-1.65-5.48-4.86-5.52-3.33-.04-4.99 1.8-4.99 5.66-.02 10.95 0 21.9 0 32.85Zm10.75 13.64c3.32.36 5.95-1.83 6.07-5.4.18-5.5.19-11.01-.02-16.51-.14-3.63-2.72-5.75-6.05-5.38v27.28Zm7.27-8.01c2.01-.36 5.4-.4 5.55-1.11.61-2.94.57-6.15-.01-9.12-.13-.65-3.42-.68-5.54-1.05z" style="fill:#231f20"/><path d="M48.56 67.77h57.66m148.53-.91h57.67" style="fill:#231f20;stroke:#e03e29;stroke-miterlimit:10;stroke-width:8px"/></svg>