<?xml version="1.0" encoding="UTF-8"?><svg id="Layer_2" xmlns="http://www.w3.org/2000/svg" viewBox="0 0 234.3 118.63"><defs><style>.cls-1{stroke:#f8f7f6;stroke-miterlimit:10;stroke-width:7px;}.cls-1,.cls-2{fill:#f8f7f6;}</style></defs><g id="Layer_1-2"><path class="cls-2" d="M72.03,10.48c3.01,1.89,4.54,4.7,4.62,8.41v.64h-10.98v-.21c0-1.06-.39-1.95-1.17-2.65-.78-.71-1.96-1.06-3.55-1.06s-2.75.23-3.58.69c-.83.46-1.25,1.03-1.25,1.7,0,.96.57,1.66,1.7,2.12,1.13.46,2.95.94,5.47,1.43,2.94.6,5.35,1.23,7.24,1.88,1.89.65,3.55,1.72,4.96,3.21,1.41,1.49,2.14,3.5,2.17,6.05,0,4.32-1.46,7.52-4.38,9.6-2.92,2.09-6.82,3.13-11.7,3.13-5.7,0-10.13-.96-13.29-2.87-3.17-1.91-4.75-5.29-4.75-10.14h11.09c0,1.84.48,3.07,1.43,3.69.96.62,2.44.93,4.46.93,1.49,0,2.71-.16,3.69-.48.97-.32,1.46-.97,1.46-1.96,0-.88-.54-1.55-1.62-1.99-1.08-.44-2.84-.91-5.28-1.41-2.97-.64-5.43-1.3-7.38-1.99-1.95-.69-3.64-1.83-5.09-3.42-1.45-1.59-2.18-3.75-2.18-6.47,0-4,1.55-6.94,4.64-8.83,3.09-1.89,7.01-2.84,11.75-2.84s8.51.95,11.52,2.84Z"/><path class="cls-2" d="M104.5,17.62v27.17h-11.73v-27.17h-11.99v-9.34h35.66v9.34h-11.94Z"/><path class="cls-2" d="M121.8,8.28h31.57v8.76h-19.85v5.04h16.98v8.38h-16.98v5.57h20.22v8.76h-31.95V8.28Z"/><path class="cls-2" d="M186.65,9.84c1.77,1.04,3.15,2.48,4.14,4.3.99,1.82,1.49,3.87,1.49,6.13v.69c0,2.26-.5,4.32-1.49,6.16-.99,1.84-2.37,3.28-4.14,4.33-1.77,1.04-3.79,1.57-6.05,1.57h-8.76v11.78h-11.73V8.28h20.48c2.26,0,4.28.52,6.05,1.57ZM171.84,24.46h4.83c1.24,0,2.17-.32,2.79-.96.62-.64.93-1.5.93-2.6v-.42c0-1.13-.31-2.01-.93-2.63-.62-.62-1.55-.93-2.79-.93h-4.83v7.54Z"/><path class="cls-2" d="M64.56,70.15c3.01,1.89,4.54,4.7,4.62,8.41v.64h-10.98v-.21c0-1.06-.39-1.95-1.17-2.65-.78-.71-1.96-1.06-3.55-1.06s-2.75.23-3.58.69c-.83.46-1.25,1.03-1.25,1.7,0,.96.57,1.66,1.7,2.12,1.13.46,2.95.94,5.47,1.43,2.94.6,5.35,1.23,7.24,1.88,1.89.65,3.55,1.72,4.96,3.21,1.41,1.49,2.14,3.5,2.17,6.05,0,4.32-1.46,7.52-4.38,9.6-2.92,2.09-6.82,3.13-11.7,3.13-5.7,0-10.13-.96-13.29-2.87-3.17-1.91-4.75-5.29-4.75-10.14h11.09c0,1.84.48,3.07,1.43,3.69.96.62,2.44.93,4.46.93,1.49,0,2.71-.16,3.69-.48.97-.32,1.46-.97,1.46-1.96,0-.88-.54-1.55-1.62-1.99-1.08-.44-2.84-.91-5.28-1.41-2.97-.64-5.43-1.3-7.38-1.99-1.95-.69-3.64-1.83-5.09-3.42-1.45-1.59-2.18-3.75-2.18-6.47,0-4,1.55-6.94,4.64-8.83,3.09-1.89,7.01-2.84,11.75-2.84s8.51.95,11.52,2.84Z"/><path class="cls-2" d="M98.68,104.46h-11.73v-14.17l-14.49-22.34h13.48l7,12.15h.21l7-12.15h12.79l-14.27,22.34v14.17Z"/><path class="cls-2" d="M143.42,104.46l-15.34-17.72v17.72h-10.77v-36.51h10.24l15.34,17.99v-17.99h10.77v36.51h-10.24Z"/><path class="cls-2" d="M191.76,71.38c3.15,2.71,4.72,6.57,4.72,11.59h-11.2c0-2.12-.56-3.8-1.67-5.04s-2.7-1.86-4.75-1.86c-2.37,0-4.11.74-5.23,2.23-1.12,1.49-1.67,3.56-1.67,6.21v3.4c0,2.62.56,4.68,1.67,6.18,1.11,1.5,2.82,2.25,5.12,2.25s3.98-.58,5.15-1.75c1.17-1.17,1.75-2.81,1.75-4.94h10.83c0,4.99-1.53,8.81-4.59,11.46-3.06,2.65-7.38,3.98-12.97,3.98-6.23,0-10.94-1.59-14.14-4.78-3.2-3.18-4.8-7.89-4.8-14.12s1.6-10.93,4.8-14.12c3.2-3.18,7.92-4.78,14.14-4.78,5.41,0,9.69,1.35,12.84,4.06Z"/><line class="cls-1" x1="32.16" y1="56.67" x2="202.18" y2="56.67"/><path class="cls-2" d="M217.02,56.49c0-14.47,0-28.94,0-43.41,0-3.9-2.62-5.88-6.09-4.66-1.91.67-2.6,2.03-2.6,4.17.05,17.59.02,35.18.02,52.77,0,11.75,0,23.51.01,35.26,0,3.24,1.4,4.74,4.31,4.72,2.92-.02,4.33-1.54,4.33-4.71,0-14.71,0-29.42,0-44.13h.01Z"/><path class="cls-2" d="M217.75,56.73c0,12.07.09,24.14-.05,36.21-.04,3.48,2.01,4.55,3.96,4.65,2.65.13,4.19-1.61,4.19-4.63,0-24.14,0-48.28,0-72.43,0-3.07-1.5-4.72-4.17-4.65-2.58.06-3.93,1.62-3.93,4.64,0,12.07,0,24.14,0,36.21Z"/><path class="cls-2" d="M226.45,56.73c0,9.36,0,18.71,0,28.07,0,3.3,1.31,4.85,3.97,4.82,2.59-.03,3.86-1.52,3.87-4.7.01-18.79.01-37.58,0-56.37,0-3.14-1.31-4.68-3.87-4.72-2.65-.03-3.97,1.53-3.97,4.83-.01,9.36,0,18.71,0,28.07Z"/><path class="cls-2" d="M17.28,56.91c0,14.47,0,28.94,0,43.41,0,3.9,2.62,5.88,6.09,4.66,1.91-.67,2.6-2.03,2.6-4.17-.05-17.59-.02-35.18-.02-52.77,0-11.75,0-23.51-.01-35.26,0-3.24-1.4-4.74-4.31-4.72-2.92.02-4.33,1.54-4.33,4.71,0,14.71,0,29.42,0,44.13h-.01Z"/><path class="cls-2" d="M16.55,56.68c0-12.07-.09-24.14.05-36.21.04-3.48-2.01-4.55-3.96-4.65-2.65-.13-4.19,1.61-4.19,4.63,0,24.14,0,48.28,0,72.43,0,3.07,1.5,4.72,4.17,4.65,2.58-.06,3.93-1.62,3.93-4.64,0-12.07,0-24.14,0-36.21Z"/><path class="cls-2" d="M7.85,56.67c0-9.36,0-18.71,0-28.07,0-3.3-1.31-4.85-3.97-4.82C1.28,23.81.01,25.31,0,28.48c-.01,18.79-.01,37.58,0,56.37,0,3.14,1.31,4.68,3.87,4.72,2.65.03,3.97-1.53,3.97-4.83.01-9.36,0-18.71,0-28.07Z"/></g></svg>