<?xml version="1.0" encoding="UTF-8"?><svg id="Layer_2" xmlns="http://www.w3.org/2000/svg" viewBox="0 0 360.52 143.59"><defs><style>.cls-1,.cls-2{fill:#231f20;}.cls-2{stroke:#e03e29;stroke-miterlimit:10;stroke-width:8px;}</style></defs><g id="Layer_1-2"><path class="cls-1" d="M136.86,81.34c3.86,2.43,5.84,6.03,5.93,10.8v.82h-14.11v-.27c0-1.36-.5-2.5-1.5-3.41-1-.91-2.52-1.36-4.57-1.36s-3.53.3-4.6.89c-1.07.59-1.6,1.32-1.6,2.18,0,1.23.73,2.14,2.18,2.73,1.45.59,3.79,1.2,7.02,1.84,3.77.77,6.87,1.58,9.3,2.42,2.43.84,4.55,2.21,6.37,4.12,1.82,1.91,2.75,4.5,2.79,7.77,0,5.54-1.87,9.65-5.62,12.33-3.75,2.68-8.76,4.02-15.03,4.02-7.32,0-13.01-1.23-17.07-3.68-4.07-2.45-6.1-6.79-6.1-13.02h14.24c0,2.36.61,3.94,1.84,4.74s3.13,1.19,5.72,1.19c1.91,0,3.49-.21,4.74-.61,1.25-.41,1.87-1.25,1.87-2.52,0-1.14-.69-1.99-2.08-2.56-1.39-.57-3.65-1.17-6.78-1.81-3.82-.82-6.97-1.67-9.47-2.56-2.5-.89-4.68-2.35-6.54-4.4-1.86-2.04-2.79-4.82-2.79-8.31,0-5.13,1.99-8.92,5.96-11.35,3.98-2.43,9.01-3.65,15.09-3.65s10.93,1.22,14.79,3.65Z"/><path class="cls-1" d="M180.68,125.4h-15.06v-18.2l-18.6-28.69h17.31l9,15.61h.27l9-15.61h16.42l-18.33,28.69v18.2Z"/><path class="cls-1" d="M238.13,125.4l-19.69-22.76v22.76h-13.83v-46.89h13.15l19.69,23.1v-23.1h13.83v46.89h-13.15Z"/><path class="cls-1" d="M300.21,82.91c4.04,3.48,6.07,8.44,6.07,14.89h-14.38c0-2.73-.72-4.88-2.15-6.47-1.43-1.59-3.46-2.39-6.1-2.39-3.04,0-5.28.95-6.71,2.86-1.43,1.91-2.15,4.57-2.15,7.97v4.36c0,3.36.72,6.01,2.15,7.94,1.43,1.93,3.62,2.9,6.58,2.9s5.11-.75,6.61-2.25c1.5-1.5,2.25-3.61,2.25-6.34h13.9c0,6.41-1.97,11.31-5.89,14.72-3.93,3.41-9.48,5.11-16.66,5.11-8,0-14.05-2.04-18.16-6.13-4.11-4.09-6.17-10.13-6.17-18.13s2.06-14.04,6.17-18.13c4.11-4.09,10.16-6.13,18.16-6.13,6.95,0,12.45,1.74,16.49,5.21Z"/><path class="cls-1" d="M89.04,13.46c3.86,2.43,5.84,6.03,5.93,10.8v.82h-14.11v-.27c0-1.36-.5-2.5-1.5-3.41-1-.91-2.52-1.36-4.57-1.36s-3.53.3-4.6.89c-1.07.59-1.6,1.32-1.6,2.18,0,1.23.73,2.14,2.18,2.73,1.45.59,3.79,1.2,7.02,1.84,3.77.77,6.87,1.58,9.3,2.42,2.43.84,4.55,2.21,6.37,4.12,1.82,1.91,2.75,4.5,2.79,7.77,0,5.54-1.87,9.65-5.62,12.33-3.75,2.68-8.76,4.02-15.03,4.02-7.32,0-13.01-1.23-17.07-3.68-4.07-2.45-6.1-6.79-6.1-13.02h14.24c0,2.36.61,3.94,1.84,4.74s3.13,1.19,5.72,1.19c1.91,0,3.49-.21,4.74-.61,1.25-.41,1.87-1.25,1.87-2.52,0-1.14-.69-1.99-2.08-2.56-1.39-.57-3.65-1.17-6.78-1.81-3.82-.82-6.97-1.67-9.47-2.56-2.5-.89-4.68-2.35-6.54-4.4-1.86-2.04-2.79-4.82-2.79-8.31,0-5.13,1.99-8.92,5.96-11.35,3.98-2.43,9.01-3.65,15.09-3.65s10.93,1.22,14.79,3.65Z"/><path class="cls-1" d="M130.74,22.62v34.89h-15.06V22.62h-15.4v-11.99h45.79v11.99h-15.33Z"/><path class="cls-1" d="M152.96,10.63h40.55v11.25h-25.49v6.47h21.81v10.77h-21.81v7.16h25.96v11.24h-41.02V10.63Z"/><path class="cls-1" d="M236.23,12.64c2.27,1.34,4.04,3.18,5.32,5.52,1.27,2.34,1.91,4.96,1.91,7.87v.89c0,2.91-.64,5.54-1.91,7.9-1.27,2.36-3.04,4.21-5.32,5.55-2.27,1.34-4.86,2.01-7.77,2.01h-11.24v15.13h-15.06V10.63h26.3c2.91,0,5.5.67,7.77,2.01ZM217.22,31.42h6.2c1.59,0,2.78-.41,3.58-1.23.79-.82,1.19-1.93,1.19-3.34v-.54c0-1.45-.4-2.58-1.19-3.37-.8-.79-1.99-1.19-3.58-1.19h-6.2v9.68Z"/><path class="cls-1" d="M35.85,67.98c0,16.94,0,33.87,0,50.81,0,4.56,3.29,6.88,7.66,5.45,2.4-.79,3.27-2.37,3.26-4.88-.06-20.59-.03-41.17-.03-61.76,0-13.76,0-27.51-.02-41.27,0-3.79-1.76-5.55-5.42-5.53-3.67.02-5.45,1.8-5.45,5.52,0,17.22,0,34.44,0,51.65h-.01Z"/><path class="cls-1" d="M34.94,67.71c0-14.13-.11-28.26.07-42.38.05-4.08-2.52-5.33-4.97-5.44-3.33-.16-5.27,1.88-5.27,5.42,0,28.26,0,56.51,0,84.77,0,3.59,1.89,5.52,5.24,5.45,3.25-.07,4.93-1.9,4.94-5.43,0-14.13,0-28.26,0-42.39Z"/><path class="cls-1" d="M24.01,67.7c0-10.95,0-21.9,0-32.85,0-3.86-1.64-5.68-4.99-5.65-3.26.03-4.86,1.78-4.86,5.5-.02,21.99-.02,43.99,0,65.98,0,3.68,1.65,5.48,4.86,5.52,3.33.04,4.99-1.8,4.99-5.66.02-10.95,0-21.9,0-32.85Z"/><path class="cls-1" d="M13.27,54.06c-3.32-.36-5.95,1.83-6.07,5.4-.18,5.5-.19,11.01.02,16.51.14,3.63,2.72,5.75,6.05,5.38,0-9.09,0-18.19,0-27.28Z"/><path class="cls-1" d="M5.99,62.07c-2.01.36-5.4.4-5.55,1.11-.61,2.94-.57,6.15.01,9.12.13.65,3.42.68,5.54,1.05v-11.28Z"/><path class="cls-1" d="M324.67,66.75c0-16.94,0-33.87,0-50.81,0-4.56-3.29-6.88-7.66-5.45-2.4.79-3.27,2.37-3.26,4.88.06,20.59.03,41.17.03,61.76,0,13.76,0,27.51.02,41.27,0,3.79,1.76,5.55,5.42,5.53,3.67-.02,5.45-1.8,5.45-5.52,0-17.22,0-34.44,0-51.65h.01Z"/><path class="cls-1" d="M325.59,67.03c0,14.13.11,28.26-.07,42.38-.05,4.08,2.52,5.33,4.97,5.44,3.33.16,5.27-1.88,5.27-5.42,0-28.26,0-56.51,0-84.77,0-3.59-1.89-5.52-5.24-5.45-3.25.07-4.93,1.9-4.94,5.43,0,14.13,0,28.26,0,42.39Z"/><path class="cls-1" d="M336.51,67.04c0,10.95,0,21.9,0,32.85,0,3.86,1.64,5.68,4.99,5.65,3.26-.03,4.86-1.78,4.86-5.5.02-21.99.02-43.99,0-65.98,0-3.68-1.65-5.48-4.86-5.52-3.33-.04-4.99,1.8-4.99,5.66-.02,10.95,0,21.9,0,32.85Z"/><path class="cls-1" d="M347.26,80.68c3.32.36,5.95-1.83,6.07-5.4.18-5.5.19-11.01-.02-16.51-.14-3.63-2.72-5.75-6.05-5.38,0,9.09,0,18.19,0,27.28Z"/><path class="cls-1" d="M354.53,72.67c2.01-.36,5.4-.4,5.55-1.11.61-2.94.57-6.15-.01-9.12-.13-.65-3.42-.68-5.54-1.05v11.28Z"/><line class="cls-2" x1="48.56" y1="67.77" x2="106.22" y2="67.77"/><line class="cls-2" x1="254.75" y1="66.86" x2="312.42" y2="66.86"/></g></svg>